<svg xmlns="http://www.w3.org/2000/svg" viewBox="0 0 336.629 71.913"><g transform="translate(-30.096 -13.399)"><g transform="translate(115.174 28.68)"><path d="M351.369,71.345h17.567v3.776H355.516v6.44h11.9v3.776h-11.9v9.609h-4.147Z" transform="translate(-349.481 -70.94)" fill="#fff"/><path d="M433.958,71.345h4.147v23.6h-4.147Z" transform="translate(-409.714 -70.94)" fill="#fff"/><path d="M472.573,71.345h10.52A9.511,9.511,0,0,1,489.9,73.7a7.134,7.134,0,0,1,1.956,5.091v.068c0,3.877-2.327,6.2-5.631,7.148l6.373,8.935h-4.889l-5.8-8.227H476.72v8.227h-4.147Zm10.216,11.7c2.967,0,4.855-1.551,4.855-3.945v-.068c0-2.529-1.82-3.911-4.889-3.911H476.72v7.923Z" transform="translate(-437.876 -70.94)" fill="#fff"/><path d="M556.782,90.6l2.5-2.967a10.87,10.87,0,0,0,7.452,3.068c2.562,0,4.181-1.18,4.181-2.967v-.067c0-1.686-.944-2.6-5.328-3.608-5.023-1.214-7.856-2.7-7.856-7.047v-.067c0-4.046,3.371-6.845,8.058-6.845a13.081,13.081,0,0,1,8.564,2.968L572.123,76.2a10.72,10.72,0,0,0-6.406-2.428c-2.427,0-3.843,1.248-3.843,2.8v.068c0,1.821,1.079,2.63,5.6,3.709,4.99,1.214,7.587,3,7.587,6.912v.068c0,4.417-3.473,7.047-8.429,7.047A14.538,14.538,0,0,1,556.782,90.6Z" transform="translate(-499.291 -70.031)" fill="#fff"/><path d="M641.765,75.189H634.28V71.345h19.151v3.844h-7.485V94.947h-4.181Z" transform="translate(-555.811 -70.94)" fill="#fff"/><path d="M761.51,70.722h3.844l10.385,23.77h-4.383l-2.394-5.7H757.8l-2.427,5.7h-4.249Zm5.934,14.4-4.08-9.441-4.046,9.441Z" transform="translate(-641.027 -70.486)" fill="#fff"/><path d="M849.785,90.6l2.495-2.967a10.871,10.871,0,0,0,7.452,3.068c2.562,0,4.181-1.18,4.181-2.967v-.067c0-1.686-.944-2.6-5.327-3.608-5.024-1.214-7.856-2.7-7.856-7.047v-.067c0-4.046,3.372-6.845,8.059-6.845a13.081,13.081,0,0,1,8.564,2.968L865.126,76.2a10.719,10.719,0,0,0-6.406-2.428c-2.427,0-3.844,1.248-3.844,2.8v.068c0,1.821,1.078,2.63,5.6,3.709,4.99,1.214,7.586,3,7.586,6.912v.068c0,4.417-3.473,7.047-8.43,7.047A14.538,14.538,0,0,1,849.785,90.6Z" transform="translate(-712.981 -70.031)" fill="#fff"/><path d="M931.505,82.123v-.068A11.943,11.943,0,0,1,943.677,69.85a12.3,12.3,0,0,1,9.239,3.675l-2.664,3.068a9.386,9.386,0,0,0-6.608-2.933c-4.518,0-7.789,3.709-7.789,8.328v.067c0,4.619,3.271,8.4,7.789,8.4,2.9,0,4.754-1.18,6.777-3.068l2.663,2.7a12.179,12.179,0,0,1-9.576,4.181A11.87,11.87,0,0,1,931.505,82.123Z" transform="translate(-772.58 -69.85)" fill="#fff"/><path d="M1027.3,71.345h17.5v3.709h-13.352V81.19h11.835V84.9h-11.835v6.339h13.521v3.709H1027.3Z" transform="translate(-842.444 -70.94)" fill="#fff"/><path d="M1110.761,71.345h3.844l12.644,16.319V71.345h4.079v23.6h-3.472L1114.84,78.156V94.947h-4.079Z" transform="translate(-903.313 -70.94)" fill="#fff"/><path d="M1210.428,75.189h-7.485V71.345h19.151v3.844h-7.485V94.947h-4.181Z" transform="translate(-970.542 -70.94)" fill="#fff"/><path d="M344.4,195.06v-.034a5.947,5.947,0,0,1,5.969-6.1,6.143,6.143,0,0,1,4.6,1.872l-.911.978a5.129,5.129,0,0,0-3.71-1.619,4.628,4.628,0,0,0-4.57,4.84v.033a4.658,4.658,0,0,0,4.57,4.874,5.124,5.124,0,0,0,3.811-1.7l.877.86a6.146,6.146,0,0,1-4.722,2.074A5.887,5.887,0,0,1,344.4,195.06Z" transform="translate(-344.395 -156.69)" fill="#fff"/><path d="M407.24,189.671h1.332v10.573h6.644v1.231H407.24Z" transform="translate(-390.228 -157.237)" fill="#fff"/><path d="M461.178,189.671h1.332v11.8h-1.332Z" transform="translate(-429.566 -157.237)" fill="#fff"/><path d="M493.815,189.671h1.349l4.3,6.441,4.3-6.441h1.349v11.8h-1.332v-9.561l-4.3,6.324h-.067l-4.3-6.307v9.545h-1.3Z" transform="translate(-453.368 -157.237)" fill="#fff"/><path d="M562.828,189.671h5.025a4.338,4.338,0,0,1,3.086,1.045,2.623,2.623,0,0,1,.758,1.889v.034a2.85,2.85,0,0,1-1.872,2.732c1.4.421,2.529,1.231,2.529,2.85v.034c0,2.023-1.7,3.221-4.283,3.221h-5.244Zm4.806,5.261c1.6,0,2.715-.725,2.715-2.108v-.034c0-1.164-.928-1.922-2.614-1.922h-3.592v4.064Zm.472,5.345c1.788,0,2.9-.793,2.9-2.108v-.033c0-1.282-1.079-2.024-3.137-2.024h-3.727v4.165Z" transform="translate(-503.7 -157.237)" fill="#fff"/><path d="M623.181,189.671h1.332v11.8h-1.332Z" transform="translate(-547.716 -157.237)" fill="#fff"/><path d="M655.818,189.671h1.248l7.437,9.46v-9.46h1.3v11.8h-1.062l-7.622-9.68v9.68h-1.3Z" transform="translate(-571.519 -157.237)" fill="#fff"/><path d="M718.041,195.06v-.034a5.923,5.923,0,0,1,5.919-6.1,6.221,6.221,0,0,1,4.4,1.569l-.86,1.012a5.019,5.019,0,0,0-3.592-1.349,4.611,4.611,0,0,0-4.485,4.84v.033a4.561,4.561,0,0,0,4.671,4.907,5.561,5.561,0,0,0,3.406-1.18v-2.934h-3.592v-1.2h4.873v4.7a7.151,7.151,0,0,1-4.738,1.8A5.788,5.788,0,0,1,718.041,195.06Z" transform="translate(-616.899 -156.69)" fill="#fff"/><path d="M821.594,199.259a5.125,5.125,0,0,1-3.862,1.838c-2.125,0-3.71-1.332-3.71-3.305v-.034c0-1.568,1.045-2.7,2.85-3.406a3.822,3.822,0,0,1-1.18-2.6v-.034a2.879,2.879,0,0,1,3.119-2.8,2.731,2.731,0,0,1,2.867,2.665v.034c0,1.5-1.062,2.462-2.782,3.069l2.7,2.749a15.4,15.4,0,0,0,1.416-2.631l1.1.506a16.521,16.521,0,0,1-1.7,2.968l2.057,2.108-1.012.776Zm-.809-.826-3.154-3.255c-1.569.574-2.26,1.535-2.26,2.53v.034a2.277,2.277,0,0,0,2.462,2.226A4.036,4.036,0,0,0,820.785,198.433Zm-.354-6.746v-.033a1.6,1.6,0,0,0-1.67-1.636,1.69,1.69,0,0,0-1.787,1.7v.034c0,.691.287,1.214,1.18,2.175C819.655,193.425,820.431,192.7,820.431,191.688Z" transform="translate(-686.899 -156.69)" fill="#fff"/><path d="M909.319,189.671H917.8V190.9h-7.15v4.216h6.391v1.214h-6.391v5.143h-1.332Z" transform="translate(-756.4 -157.237)" fill="#fff"/><path d="M965.561,189.671h1.332v11.8h-1.332Z" transform="translate(-797.417 -157.237)" fill="#fff"/><path d="M999.047,190.9h-3.963v-1.231h9.274V190.9H1000.4v10.573h-1.349Z" transform="translate(-818.949 -157.237)" fill="#fff"/><path d="M1053.509,189.671h1.248l7.437,9.46v-9.46h1.3v11.8h-1.062l-7.621-9.68v9.68h-1.3Z" transform="translate(-861.559 -157.237)" fill="#fff"/><path d="M1117.663,189.671h8.532v1.214H1119v4.03h6.442v1.214H1119v4.131h7.284v1.214h-8.616Z" transform="translate(-908.347 -157.237)" fill="#fff"/><path d="M1171.476,199.3l.826-.978a5.623,5.623,0,0,0,4.047,1.67c1.585,0,2.63-.843,2.63-2.007v-.034c0-1.1-.59-1.72-3.069-2.243-2.715-.59-3.963-1.467-3.963-3.406v-.034c0-1.855,1.636-3.22,3.879-3.22a6.161,6.161,0,0,1,4.148,1.45l-.776,1.029a5.185,5.185,0,0,0-3.406-1.282c-1.535,0-2.513.843-2.513,1.906v.034c0,1.113.607,1.737,3.2,2.294,2.631.574,3.844,1.535,3.844,3.339v.034c0,2.023-1.686,3.339-4.03,3.339A6.906,6.906,0,0,1,1171.476,199.3Z" transform="translate(-947.593 -156.782)" fill="#fff"/><path d="M1225.665,199.3l.826-.978a5.622,5.622,0,0,0,4.047,1.67c1.585,0,2.631-.843,2.631-2.007v-.034c0-1.1-.59-1.72-3.069-2.243-2.715-.59-3.962-1.467-3.962-3.406v-.034c0-1.855,1.636-3.22,3.878-3.22a6.161,6.161,0,0,1,4.148,1.45l-.776,1.029a5.185,5.185,0,0,0-3.406-1.282c-1.535,0-2.513.843-2.513,1.906v.034c0,1.113.607,1.737,3.2,2.294,2.63.574,3.844,1.535,3.844,3.339v.034c0,2.023-1.686,3.339-4.03,3.339A6.906,6.906,0,0,1,1225.665,199.3Z" transform="translate(-987.114 -156.782)" fill="#fff"/></g><g transform="translate(30.096 13.399)"><path d="M66.053,13.4a35.957,35.957,0,1,0,35.956,35.957A35.956,35.956,0,0,0,66.053,13.4Zm0,70.444A34.487,34.487,0,1,1,100.54,49.356,34.487,34.487,0,0,1,66.053,83.843Z" transform="translate(-30.096 -13.399)" fill="#fff"/><line x1="0.066" y1="14.904" transform="translate(41.757 14.963)" fill="#fff"/><path d="M184.358,68.137" transform="translate(-142.601 -53.32)" fill="#fff"/><g transform="translate(16.286 9.01)"><path d="M102.429,74.372,90.26,86.473l6.428,7.489,7.363-6.325v32.735h11.681V74.4Z" transform="translate(-90.26 -66.877)" fill="#fff"/><path d="M141.451,52.491l5.807-5.807,5.807,5.807Z" transform="translate(-127.595 -46.683)" fill="#fff"/><path d="M190.694,74.473l12.142,12.165-6.428,7.524-5.714-4.931Z" transform="translate(-163.508 -66.951)" fill="#fff"/></g></g></g></svg>